{
	"asset":{
		"generator":"Khronos glTF Blender I/O v4.2.60",
		"version":"2.0"
	},
	"scene":0,
	"scenes":[
		{
			"name":"Scene",
			"nodes":[
				0,
				1
			]
		}
	],
	"nodes":[
		{
			"mesh":0,
			"name":"Base"
		},
		{
			"mesh":1,
			"name":"Window"
		}
	],
	"materials":[
		{
			"doubleSided":true,
			"name":"simple_wall_plaster_C",
			"normalTexture":{
				"index":0
			},
			"pbrMetallicRoughness":{
				"baseColorTexture":{
					"index":1
				},
				"metallicFactor":0,
				"metallicRoughnessTexture":{
					"index":2
				}
			}
		},
		{
			"alphaMode":"BLEND",
			"doubleSided":true,
			"name":"glass",
			"pbrMetallicRoughness":{
				"baseColorFactor":[
					0.06859627366065979,
					0.37877392768859863,
					0.43067213892936707,
					0.6513761281967163
				],
				"metallicFactor":0.7247706651687622,
				"roughnessFactor":0.23853209614753723
			}
		},
		{
			"doubleSided":true,
			"name":"checker_marble_golden_grout",
			"normalTexture":{
				"index":3
			},
			"pbrMetallicRoughness":{
				"baseColorTexture":{
					"index":4
				},
				"metallicFactor":0,
				"metallicRoughnessTexture":{
					"index":5
				}
			}
		},
		{
			"doubleSided":true,
			"name":"Aluminium_Metal_Sheet",
			"normalTexture":{
				"index":6
			},
			"pbrMetallicRoughness":{
				"baseColorTexture":{
					"index":7
				},
				"metallicRoughnessTexture":{
					"index":8
				}
			}
		}
	],
	"meshes":[
		{
			"name":"Plane",
			"primitives":[
				{
					"attributes":{
						"POSITION":0,
						"NORMAL":1,
						"TEXCOORD_0":2
					},
					"indices":3,
					"material":0
				},
				{
					"attributes":{
						"POSITION":4,
						"NORMAL":5,
						"TEXCOORD_0":6
					},
					"indices":7,
					"material":1
				},
				{
					"attributes":{
						"POSITION":8,
						"NORMAL":9,
						"TEXCOORD_0":10
					},
					"indices":11,
					"material":2
				},
				{
					"attributes":{
						"POSITION":12,
						"NORMAL":13,
						"TEXCOORD_0":14
					},
					"indices":15,
					"material":3
				}
			]
		},
		{
			"name":"Plane.001",
			"primitives":[
				{
					"attributes":{
						"POSITION":16,
						"NORMAL":17,
						"TEXCOORD_0":18
					},
					"indices":19,
					"material":1
				}
			]
		}
	],
	"textures":[
		{
			"sampler":0,
			"source":0
		},
		{
			"sampler":0,
			"source":1
		},
		{
			"sampler":0,
			"source":2
		},
		{
			"sampler":0,
			"source":3
		},
		{
			"sampler":0,
			"source":4
		},
		{
			"sampler":0,
			"source":5
		},
		{
			"sampler":0,
			"source":6
		},
		{
			"sampler":0,
			"source":7
		},
		{
			"sampler":0,
			"source":8
		}
	],
	"images":[
		{
			"mimeType":"image/jpeg",
			"name":"simple_wall_plaster_C_Normal",
			"uri":"simple_wall_plaster_C_Normal.jpg"
		},
		{
			"mimeType":"image/jpeg",
			"name":"simple_wall_plaster_C_Base_Color",
			"uri":"simple_wall_plaster_C_Base_Color.jpg"
		},
		{
			"mimeType":"image/png",
			"name":"simple_wall_plaster_C_Roughness",
			"uri":"simple_wall_plaster_C_Roughness.png"
		},
		{
			"mimeType":"image/jpeg",
			"name":"checker_marble_golden_grout_Normal",
			"uri":"checker_marble_golden_grout_Normal.jpg"
		},
		{
			"mimeType":"image/jpeg",
			"name":"checker_marble_golden_grout_Base_Color",
			"uri":"checker_marble_golden_grout_Base_Color.jpg"
		},
		{
			"mimeType":"image/png",
			"name":"checker_marble_golden_grout_Roughness",
			"uri":"checker_marble_golden_grout_Roughness.png"
		},
		{
			"mimeType":"image/jpeg",
			"name":"Aluminium_Metal_Sheet_Normal",
			"uri":"Aluminium_Metal_Sheet_Normal.jpg"
		},
		{
			"mimeType":"image/jpeg",
			"name":"Aluminium_Metal_Sheet_Base_color",
			"uri":"Aluminium_Metal_Sheet_Base_color.jpg"
		},
		{
			"mimeType":"image/jpeg",
			"name":"Aluminium_Metal_Sheet_Roughness",
			"uri":"Aluminium_Metal_Sheet_Roughness.jpg"
		}
	],
	"accessors":[
		{
			"bufferView":0,
			"componentType":5126,
			"count":662,
			"max":[
				240,
				40,
				70
			],
			"min":[
				0,
				-0.6300000548362732,
				-70
			],
			"type":"VEC3"
		},
		{
			"bufferView":1,
			"componentType":5126,
			"count":662,
			"type":"VEC3"
		},
		{
			"bufferView":2,
			"componentType":5126,
			"count":662,
			"type":"VEC2"
		},
		{
			"bufferView":3,
			"componentType":5123,
			"count":2064,
			"type":"SCALAR"
		},
		{
			"bufferView":4,
			"componentType":5126,
			"count":24,
			"max":[
				239.99998474121094,
				29.14896011352539,
				58.69511032104492
			],
			"min":[
				7.152557373046875e-06,
				13.281975746154785,
				-58.69511032104492
			],
			"type":"VEC3"
		},
		{
			"bufferView":5,
			"componentType":5126,
			"count":24,
			"type":"VEC3"
		},
		{
			"bufferView":6,
			"componentType":5126,
			"count":24,
			"type":"VEC2"
		},
		{
			"bufferView":7,
			"componentType":5123,
			"count":36,
			"type":"SCALAR"
		},
		{
			"bufferView":8,
			"componentType":5126,
			"count":24,
			"max":[
				240,
				0,
				70
			],
			"min":[
				0,
				-0.6300000548362732,
				-70
			],
			"type":"VEC3"
		},
		{
			"bufferView":9,
			"componentType":5126,
			"count":24,
			"type":"VEC3"
		},
		{
			"bufferView":10,
			"componentType":5126,
			"count":24,
			"type":"VEC2"
		},
		{
			"bufferView":11,
			"componentType":5123,
			"count":54,
			"type":"SCALAR"
		},
		{
			"bufferView":12,
			"componentType":5126,
			"count":1210,
			"max":[
				240,
				50.74728775024414,
				70
			],
			"min":[
				0,
				12.402695655822754,
				-70
			],
			"type":"VEC3"
		},
		{
			"bufferView":13,
			"componentType":5126,
			"count":1210,
			"type":"VEC3"
		},
		{
			"bufferView":14,
			"componentType":5126,
			"count":1210,
			"type":"VEC2"
		},
		{
			"bufferView":15,
			"componentType":5123,
			"count":2250,
			"type":"SCALAR"
		},
		{
			"bufferView":16,
			"componentType":5126,
			"count":24,
			"max":[
				237.7452392578125,
				50.069427490234375,
				59.5
			],
			"min":[
				2.482544422149658,
				40.069427490234375,
				-59.5
			],
			"type":"VEC3"
		},
		{
			"bufferView":17,
			"componentType":5126,
			"count":24,
			"type":"VEC3"
		},
		{
			"bufferView":18,
			"componentType":5126,
			"count":24,
			"type":"VEC2"
		},
		{
			"bufferView":19,
			"componentType":5123,
			"count":36,
			"type":"SCALAR"
		}
	],
	"bufferViews":[
		{
			"buffer":0,
			"byteLength":7944,
			"byteOffset":0,
			"target":34962
		},
		{
			"buffer":0,
			"byteLength":7944,
			"byteOffset":7944,
			"target":34962
		},
		{
			"buffer":0,
			"byteLength":5296,
			"byteOffset":15888,
			"target":34962
		},
		{
			"buffer":0,
			"byteLength":4128,
			"byteOffset":21184,
			"target":34963
		},
		{
			"buffer":0,
			"byteLength":288,
			"byteOffset":25312,
			"target":34962
		},
		{
			"buffer":0,
			"byteLength":288,
			"byteOffset":25600,
			"target":34962
		},
		{
			"buffer":0,
			"byteLength":192,
			"byteOffset":25888,
			"target":34962
		},
		{
			"buffer":0,
			"byteLength":72,
			"byteOffset":26080,
			"target":34963
		},
		{
			"buffer":0,
			"byteLength":288,
			"byteOffset":26152,
			"target":34962
		},
		{
			"buffer":0,
			"byteLength":288,
			"byteOffset":26440,
			"target":34962
		},
		{
			"buffer":0,
			"byteLength":192,
			"byteOffset":26728,
			"target":34962
		},
		{
			"buffer":0,
			"byteLength":108,
			"byteOffset":26920,
			"target":34963
		},
		{
			"buffer":0,
			"byteLength":14520,
			"byteOffset":27028,
			"target":34962
		},
		{
			"buffer":0,
			"byteLength":14520,
			"byteOffset":41548,
			"target":34962
		},
		{
			"buffer":0,
			"byteLength":9680,
			"byteOffset":56068,
			"target":34962
		},
		{
			"buffer":0,
			"byteLength":4500,
			"byteOffset":65748,
			"target":34963
		},
		{
			"buffer":0,
			"byteLength":288,
			"byteOffset":70248,
			"target":34962
		},
		{
			"buffer":0,
			"byteLength":288,
			"byteOffset":70536,
			"target":34962
		},
		{
			"buffer":0,
			"byteLength":192,
			"byteOffset":70824,
			"target":34962
		},
		{
			"buffer":0,
			"byteLength":72,
			"byteOffset":71016,
			"target":34963
		}
	],
	"samplers":[
		{
			"magFilter":9729,
			"minFilter":9987
		}
	],
	"buffers":[
		{
			"byteLength":71088,
			"uri":"scene.bin"
		}
	]
}
